<svg width="25" height="24" viewBox="0 0 25 24" fill="none" xmlns="http://www.w3.org/2000/svg">
<path d="M12.6648 10.8542H20.3724C20.4575 11.3194 20.5 11.7639 20.5 12.1875C20.5 13.6944 20.1775 15.0399 19.5326 16.224C18.8876 17.408 17.968 18.3333 16.7738 19C15.5795 19.6667 14.2099 20 12.6648 20C11.552 20 10.4925 19.7899 9.48605 19.3698C8.47962 18.9497 7.61141 18.3819 6.8814 17.6667C6.15138 16.9514 5.57198 16.1007 5.14319 15.1146C4.7144 14.1285 4.5 13.0903 4.5 12C4.5 10.9097 4.7144 9.87153 5.14319 8.88542C5.57198 7.89931 6.15138 7.04861 6.8814 6.33333C7.61141 5.61806 8.47962 5.05035 9.48605 4.63021C10.4925 4.21007 11.552 4 12.6648 4C14.791 4 16.6161 4.69792 18.1399 6.09375L15.9179 8.1875C15.0462 7.36111 13.9618 6.94792 12.6648 6.94792C11.7505 6.94792 10.9053 7.17361 10.1292 7.625C9.35316 8.07639 8.73832 8.68924 8.28472 9.46354C7.83112 10.2378 7.60432 11.0833 7.60432 12C7.60432 12.9167 7.83112 13.7622 8.28472 14.5365C8.73832 15.3108 9.35316 15.9236 10.1292 16.375C10.9053 16.8264 11.7505 17.0521 12.6648 17.0521C13.2814 17.0521 13.8484 16.9688 14.3658 16.8021C14.8832 16.6354 15.3084 16.4271 15.6415 16.1771C15.9746 15.9271 16.2652 15.6424 16.5133 15.3229C16.7614 15.0035 16.9439 14.7014 17.0608 14.4167C17.1777 14.1319 17.2575 13.8611 17.3 13.6042H12.6648V10.8542Z" fill="white"/>
</svg>
