<svg width="95" height="72" viewBox="0 0 95 72" fill="none" xmlns="http://www.w3.org/2000/svg">
<path fill-rule="evenodd" clip-rule="evenodd" d="M1.08579 0.585786C0.5 1.17157 0.5 2.11438 0.5 4V5.1639C0.5 6.75732 0.5 7.55403 0.928215 8.09826C1.02623 8.22283 1.1387 8.33531 1.26327 8.43332C1.8075 8.86154 2.60421 8.86154 4.19763 8.86154C5.79105 8.86154 6.58776 8.86154 7.13199 9.28975C7.25656 9.38777 7.36903 9.50024 7.46705 9.62481C7.89526 10.169 7.89526 10.9657 7.89526 12.5592V59.4408C7.89526 61.0342 7.89526 61.831 7.46705 62.3752C7.36903 62.4998 7.25656 62.6122 7.13199 62.7102C6.58776 63.1385 5.79105 63.1385 4.19763 63.1385C2.60421 63.1385 1.8075 63.1385 1.26327 63.5667C1.1387 63.6647 1.02623 63.7772 0.928215 63.9017C0.5 64.446 0.5 65.2427 0.5 66.8361V68C0.5 69.8856 0.5 70.8284 1.08579 71.4142C1.67157 72 2.61438 72 4.5 72H19.9536C21.8392 72 22.782 72 23.3678 71.4142C23.9536 70.8284 23.9536 69.8856 23.9536 68V66.3079C23.9536 65.2166 23.9536 64.671 23.7463 64.252C23.5518 63.8586 23.2334 63.5402 22.8401 63.3457C22.421 63.1385 21.8754 63.1385 20.7842 63.1385C19.6929 63.1385 19.1473 63.1385 18.7283 62.9313C18.3349 62.7368 18.0165 62.4183 17.822 62.025C17.6148 61.6059 17.6148 61.0603 17.6148 59.9691V50.5231C17.6148 48.6375 17.6148 47.6947 18.2005 47.1089C18.7863 46.5231 19.7291 46.5231 21.6148 46.5231H28.5V72H43.6949C41.8093 72 40.8665 72 40.2807 71.4142C39.6949 70.8284 39.6949 69.8856 39.6949 68V64.2242C39.6949 63.6246 40.181 63.1385 40.7807 63.1385C41.6147 63.1385 42.1373 62.2372 41.7231 61.5134L34.2969 48.5364C33.7348 47.554 33.4537 47.0628 32.9883 46.7929C32.5229 46.5231 31.957 46.5231 30.8252 46.5231H28.5V36.9969H36.8C37.654 36.9969 38.081 36.9969 38.4614 36.8321C38.8418 36.6673 39.1339 36.3558 39.718 35.7329L43.5783 31.6155C44.1128 31.0455 44.38 30.7605 44.5201 30.4061C44.6603 30.0517 44.6603 29.661 44.6603 28.8796V17.6234C44.6603 16.8517 44.6603 16.4659 44.5233 16.115C44.3863 15.7642 44.1249 15.4804 43.6019 14.9129L39.8266 10.8157C39.2412 10.1803 38.9485 9.86269 38.5647 9.69442C38.3282 9.59075 38.0734 9.55095 37.7107 9.53568C40.0972 7.11482 42.8666 5.0724 45.9206 3.50657L52.7165 11.0431C53.2253 11.6073 53.4797 11.8894 53.6128 12.2358C53.7459 12.5821 53.7459 12.962 53.7459 13.7218V32.7924C53.7459 33.5565 53.7459 33.9385 53.6114 34.2865C53.4769 34.6344 53.22 34.9172 52.7061 35.4826L45.0374 43.9212C44.0913 44.9624 43.6181 45.483 43.5482 46.131C43.4782 46.7791 43.8293 47.3886 44.5315 48.6078L51.8771 61.3612C52.3117 62.1158 52.5291 62.4931 52.8584 62.7397C52.9849 62.8344 53.1222 62.9137 53.2674 62.9761C53.6454 63.1385 54.0809 63.1385 54.9518 63.1385C56.4022 63.1385 57.1274 63.1385 57.6424 63.4969C57.8371 63.6323 58.0061 63.8014 58.1416 63.996C58.5 64.511 58.5 65.2362 58.5 66.6867V68C58.5 69.8856 58.5 70.8284 57.9142 71.4142C57.3284 72 56.3856 72 54.5 72H62.5C80.1731 72 94.5 57.6731 94.5 40V2C94.5 0.895431 93.6046 0 92.5 0H60.5C55.2488 0 50.293 1.26488 45.9206 3.50657L43.9501 1.3213C43.3633 0.670582 43.07 0.345222 42.6819 0.172611C42.2938 0 41.8557 0 40.9795 0H4.5C2.61438 0 1.67157 0 1.08579 0.585786ZM37.7107 9.53568C37.4846 9.52616 37.2166 9.52616 36.885 9.52616H21.6148C19.7291 9.52616 18.7863 9.52616 18.2005 10.1119C17.6148 10.6977 17.6148 11.6405 17.6148 13.5262V32.9969C17.6148 34.8825 17.6148 35.8253 18.2005 36.4111C18.7863 36.9969 19.7291 36.9969 21.6148 36.9969H28.5V32C28.5 23.2461 32.015 15.3132 37.7107 9.53568Z" fill="#2C5D81"/>
</svg>
